# xmcd
#
# Track frame offsets:
#       150
#       19675
#       36892
#       56539
#       77752
#       96110
#       117165
#       128467
#       147532
#       168577
#       189452
#       211677
#
# Disc length: 3137 seconds
#
# Revision: 4
# Processed by: cddbd v1.5.2PL0 Copyright (c) Steve Scherf et al.
# Submitted via: WhereIsIt 3.68
#
DISCID=9b0c3f0c
DTITLE=林忆莲 - 非爱不可
DYEAR=2004
DGENRE=Rock
TTITLE0=不必在乎我是谁
TTITLE1=非爱不可
TTITLE2=还是不要说抱歉
TTITLE3=再生恋
TTITLE4=是情非情
TTITLE5=当爱已成往事
TTITLE6=寂寞派对
TTITLE7=让爱人去流浪
TTITLE8=醒醒
TTITLE9=给最久的人
TTITLE10=快乐的坏东西
TTITLE11=只要珍惜
EXTD=
EXTT0=
EXTT1=
EXTT2=
EXTT3=
EXTT4=
EXTT5=
EXTT6=
EXTT7=
EXTT8=
EXTT9=
EXTT10=
EXTT11=
PLAYORDER=
